<svg width="125" height="32" viewBox="0 0 125 32" fill="none" xmlns="http://www.w3.org/2000/svg">
<path d="M10.3711 19.5234C10.3711 18.8594 10.1367 18.3516 9.66797 18C9.19922 17.6406 8.35547 17.2656 7.13672 16.875C5.91797 16.4766 4.95312 16.0859 4.24219 15.7031C2.30469 14.6562 1.33594 13.2461 1.33594 11.4727C1.33594 10.5508 1.59375 9.73047 2.10938 9.01172C2.63281 8.28516 3.37891 7.71875 4.34766 7.3125C5.32422 6.90625 6.41797 6.70312 7.62891 6.70312C8.84766 6.70312 9.93359 6.92578 10.8867 7.37109C11.8398 7.80859 12.5781 8.42969 13.1016 9.23438C13.6328 10.0391 13.8984 10.9531 13.8984 11.9766H10.3828C10.3828 11.1953 10.1367 10.5898 9.64453 10.1602C9.15234 9.72266 8.46094 9.50391 7.57031 9.50391C6.71094 9.50391 6.04297 9.6875 5.56641 10.0547C5.08984 10.4141 4.85156 10.8906 4.85156 11.4844C4.85156 12.0391 5.12891 12.5039 5.68359 12.8789C6.24609 13.2539 7.07031 13.6055 8.15625 13.9336C10.1562 14.5352 11.6133 15.2812 12.5273 16.1719C13.4414 17.0625 13.8984 18.1719 13.8984 19.5C13.8984 20.9766 13.3398 22.1367 12.2227 22.9805C11.1055 23.8164 9.60156 24.2344 7.71094 24.2344C6.39844 24.2344 5.20312 23.9961 4.125 23.5195C3.04688 23.0352 2.22266 22.375 1.65234 21.5391C1.08984 20.7031 0.808594 19.7344 0.808594 18.6328H4.33594C4.33594 20.5156 5.46094 21.457 7.71094 21.457C8.54688 21.457 9.19922 21.2891 9.66797 20.9531C10.1367 20.6094 10.3711 20.1328 10.3711 19.5234ZM21.9023 24.2344C20.043 24.2344 18.5273 23.6641 17.3555 22.5234C16.1914 21.3828 15.6094 19.8633 15.6094 17.9648V17.6367C15.6094 16.3633 15.8555 15.2266 16.3477 14.2266C16.8398 13.2188 17.5352 12.4453 18.4336 11.9062C19.3398 11.3594 20.3711 11.0859 21.5273 11.0859C23.2617 11.0859 24.625 11.6328 25.6172 12.7266C26.6172 13.8203 27.1172 15.3711 27.1172 17.3789V18.7617H19.043C19.1523 19.5898 19.4805 20.2539 20.0273 20.7539C20.582 21.2539 21.2812 21.5039 22.125 21.5039C23.4297 21.5039 24.4492 21.0312 25.1836 20.0859L26.8477 21.9492C26.3398 22.668 25.6523 23.2305 24.7852 23.6367C23.918 24.0352 22.957 24.2344 21.9023 24.2344ZM21.5156 13.8281C20.8438 13.8281 20.2969 14.0547 19.875 14.5078C19.4609 14.9609 19.1953 15.6094 19.0781 16.4531H23.7891V16.1836C23.7734 15.4336 23.5703 14.8555 23.1797 14.4492C22.7891 14.0352 22.2344 13.8281 21.5156 13.8281ZM36.1758 14.4961C35.7148 14.4336 35.3086 14.4023 34.957 14.4023C33.6758 14.4023 32.8359 14.8359 32.4375 15.7031V24H29.0508V11.3203H32.25L32.3438 12.832C33.0234 11.668 33.9648 11.0859 35.168 11.0859C35.543 11.0859 35.8945 11.1367 36.2227 11.2383L36.1758 14.4961ZM41.3906 24H37.9922V11.3203H41.3906V24ZM37.793 8.03906C37.793 7.53125 37.9609 7.11328 38.2969 6.78516C38.6406 6.45703 39.1055 6.29297 39.6914 6.29297C40.2695 6.29297 40.7305 6.45703 41.0742 6.78516C41.418 7.11328 41.5898 7.53125 41.5898 8.03906C41.5898 8.55469 41.4141 8.97656 41.0625 9.30469C40.7188 9.63281 40.2617 9.79688 39.6914 9.79688C39.1211 9.79688 38.6602 9.63281 38.3086 9.30469C37.9648 8.97656 37.793 8.55469 37.793 8.03906ZM51.5391 24C51.3828 23.6953 51.2695 23.3164 51.1992 22.8633C50.3789 23.7773 49.3125 24.2344 48 24.2344C46.7578 24.2344 45.7266 23.875 44.9062 23.1562C44.0938 22.4375 43.6875 21.5312 43.6875 20.4375C43.6875 19.0938 44.1836 18.0625 45.1758 17.3438C46.1758 16.625 47.6172 16.2617 49.5 16.2539H51.0586V15.5273C51.0586 14.9414 50.9062 14.4727 50.6016 14.1211C50.3047 13.7695 49.832 13.5938 49.1836 13.5938C48.6133 13.5938 48.1641 13.7305 47.8359 14.0039C47.5156 14.2773 47.3555 14.6523 47.3555 15.1289H43.9688C43.9688 14.3945 44.1953 13.7148 44.6484 13.0898C45.1016 12.4648 45.7422 11.9766 46.5703 11.625C47.3984 11.2656 48.3281 11.0859 49.3594 11.0859C50.9219 11.0859 52.1602 11.4805 53.0742 12.2695C53.9961 13.0508 54.457 14.1523 54.457 15.5742V21.0703C54.4648 22.2734 54.6328 23.1836 54.9609 23.8008V24H51.5391ZM48.7383 21.6445C49.2383 21.6445 49.6992 21.5352 50.1211 21.3164C50.543 21.0898 50.8555 20.7891 51.0586 20.4141V18.2344H49.793C48.0977 18.2344 47.1953 18.8203 47.0859 19.9922L47.0742 20.1914C47.0742 20.6133 47.2227 20.9609 47.5195 21.2344C47.8164 21.5078 48.2227 21.6445 48.7383 21.6445ZM60.6328 24H57.2344V6H60.6328V24ZM74.9766 17.1562L73.1484 19.125V24H69.6328V6.9375H73.1484V14.6719L74.6953 12.5508L79.043 6.9375H83.3672L77.3086 14.5195L83.543 24H79.3594L74.9766 17.1562ZM88.2188 24H84.8203V11.3203H88.2188V24ZM84.6211 8.03906C84.6211 7.53125 84.7891 7.11328 85.125 6.78516C85.4688 6.45703 85.9336 6.29297 86.5195 6.29297C87.0977 6.29297 87.5586 6.45703 87.9023 6.78516C88.2461 7.11328 88.418 7.53125 88.418 8.03906C88.418 8.55469 88.2422 8.97656 87.8906 9.30469C87.5469 9.63281 87.0898 9.79688 86.5195 9.79688C85.9492 9.79688 85.4883 9.63281 85.1367 9.30469C84.793 8.97656 84.6211 8.55469 84.6211 8.03906ZM94.5938 24H91.1953V6H94.5938V24ZM100.969 24H97.5703V6H100.969V24ZM109.605 24.2344C107.746 24.2344 106.23 23.6641 105.059 22.5234C103.895 21.3828 103.312 19.8633 103.312 17.9648V17.6367C103.312 16.3633 103.559 15.2266 104.051 14.2266C104.543 13.2188 105.238 12.4453 106.137 11.9062C107.043 11.3594 108.074 11.0859 109.23 11.0859C110.965 11.0859 112.328 11.6328 113.32 12.7266C114.32 13.8203 114.82 15.3711 114.82 17.3789V18.7617H106.746C106.855 19.5898 107.184 20.2539 107.73 20.7539C108.285 21.2539 108.984 21.5039 109.828 21.5039C111.133 21.5039 112.152 21.0312 112.887 20.0859L114.551 21.9492C114.043 22.668 113.355 23.2305 112.488 23.6367C111.621 24.0352 110.66 24.2344 109.605 24.2344ZM109.219 13.8281C108.547 13.8281 108 14.0547 107.578 14.5078C107.164 14.9609 106.898 15.6094 106.781 16.4531H111.492V16.1836C111.477 15.4336 111.273 14.8555 110.883 14.4492C110.492 14.0352 109.938 13.8281 109.219 13.8281ZM123.879 14.4961C123.418 14.4336 123.012 14.4023 122.66 14.4023C121.379 14.4023 120.539 14.8359 120.141 15.7031V24H116.754V11.3203H119.953L120.047 12.832C120.727 11.668 121.668 11.0859 122.871 11.0859C123.246 11.0859 123.598 11.1367 123.926 11.2383L123.879 14.4961Z" fill="#1D233A"/>
</svg>
