<svg width="124" height="19" viewBox="0 0 124 19" fill="none" xmlns="http://www.w3.org/2000/svg">
<path d="M10.3711 13.5234C10.3711 12.8594 10.1367 12.3516 9.66797 12C9.19922 11.6406 8.35547 11.2656 7.13672 10.875C5.91797 10.4766 4.95312 10.0859 4.24219 9.70312C2.30469 8.65625 1.33594 7.24609 1.33594 5.47266C1.33594 4.55078 1.59375 3.73047 2.10938 3.01172C2.63281 2.28516 3.37891 1.71875 4.34766 1.3125C5.32422 0.90625 6.41797 0.703125 7.62891 0.703125C8.84766 0.703125 9.93359 0.925781 10.8867 1.37109C11.8398 1.80859 12.5781 2.42969 13.1016 3.23438C13.6328 4.03906 13.8984 4.95312 13.8984 5.97656H10.3828C10.3828 5.19531 10.1367 4.58984 9.64453 4.16016C9.15234 3.72266 8.46094 3.50391 7.57031 3.50391C6.71094 3.50391 6.04297 3.6875 5.56641 4.05469C5.08984 4.41406 4.85156 4.89062 4.85156 5.48438C4.85156 6.03906 5.12891 6.50391 5.68359 6.87891C6.24609 7.25391 7.07031 7.60547 8.15625 7.93359C10.1562 8.53516 11.6133 9.28125 12.5273 10.1719C13.4414 11.0625 13.8984 12.1719 13.8984 13.5C13.8984 14.9766 13.3398 16.1367 12.2227 16.9805C11.1055 17.8164 9.60156 18.2344 7.71094 18.2344C6.39844 18.2344 5.20312 17.9961 4.125 17.5195C3.04688 17.0352 2.22266 16.375 1.65234 15.5391C1.08984 14.7031 0.808594 13.7344 0.808594 12.6328H4.33594C4.33594 14.5156 5.46094 15.457 7.71094 15.457C8.54688 15.457 9.19922 15.2891 9.66797 14.9531C10.1367 14.6094 10.3711 14.1328 10.3711 13.5234ZM21.9023 18.2344C20.043 18.2344 18.5273 17.6641 17.3555 16.5234C16.1914 15.3828 15.6094 13.8633 15.6094 11.9648V11.6367C15.6094 10.3633 15.8555 9.22656 16.3477 8.22656C16.8398 7.21875 17.5352 6.44531 18.4336 5.90625C19.3398 5.35938 20.3711 5.08594 21.5273 5.08594C23.2617 5.08594 24.625 5.63281 25.6172 6.72656C26.6172 7.82031 27.1172 9.37109 27.1172 11.3789V12.7617H19.043C19.1523 13.5898 19.4805 14.2539 20.0273 14.7539C20.582 15.2539 21.2812 15.5039 22.125 15.5039C23.4297 15.5039 24.4492 15.0312 25.1836 14.0859L26.8477 15.9492C26.3398 16.668 25.6523 17.2305 24.7852 17.6367C23.918 18.0352 22.957 18.2344 21.9023 18.2344ZM21.5156 7.82812C20.8438 7.82812 20.2969 8.05469 19.875 8.50781C19.4609 8.96094 19.1953 9.60938 19.0781 10.4531H23.7891V10.1836C23.7734 9.43359 23.5703 8.85547 23.1797 8.44922C22.7891 8.03516 22.2344 7.82812 21.5156 7.82812ZM36.1758 8.49609C35.7148 8.43359 35.3086 8.40234 34.957 8.40234C33.6758 8.40234 32.8359 8.83594 32.4375 9.70312V18H29.0508V5.32031H32.25L32.3438 6.83203C33.0234 5.66797 33.9648 5.08594 35.168 5.08594C35.543 5.08594 35.8945 5.13672 36.2227 5.23828L36.1758 8.49609ZM41.3906 18H37.9922V5.32031H41.3906V18ZM37.793 2.03906C37.793 1.53125 37.9609 1.11328 38.2969 0.785156C38.6406 0.457031 39.1055 0.292969 39.6914 0.292969C40.2695 0.292969 40.7305 0.457031 41.0742 0.785156C41.418 1.11328 41.5898 1.53125 41.5898 2.03906C41.5898 2.55469 41.4141 2.97656 41.0625 3.30469C40.7188 3.63281 40.2617 3.79688 39.6914 3.79688C39.1211 3.79688 38.6602 3.63281 38.3086 3.30469C37.9648 2.97656 37.793 2.55469 37.793 2.03906ZM51.5391 18C51.3828 17.6953 51.2695 17.3164 51.1992 16.8633C50.3789 17.7773 49.3125 18.2344 48 18.2344C46.7578 18.2344 45.7266 17.875 44.9062 17.1562C44.0938 16.4375 43.6875 15.5312 43.6875 14.4375C43.6875 13.0938 44.1836 12.0625 45.1758 11.3438C46.1758 10.625 47.6172 10.2617 49.5 10.2539H51.0586V9.52734C51.0586 8.94141 50.9062 8.47266 50.6016 8.12109C50.3047 7.76953 49.832 7.59375 49.1836 7.59375C48.6133 7.59375 48.1641 7.73047 47.8359 8.00391C47.5156 8.27734 47.3555 8.65234 47.3555 9.12891H43.9688C43.9688 8.39453 44.1953 7.71484 44.6484 7.08984C45.1016 6.46484 45.7422 5.97656 46.5703 5.625C47.3984 5.26562 48.3281 5.08594 49.3594 5.08594C50.9219 5.08594 52.1602 5.48047 53.0742 6.26953C53.9961 7.05078 54.457 8.15234 54.457 9.57422V15.0703C54.4648 16.2734 54.6328 17.1836 54.9609 17.8008V18H51.5391ZM48.7383 15.6445C49.2383 15.6445 49.6992 15.5352 50.1211 15.3164C50.543 15.0898 50.8555 14.7891 51.0586 14.4141V12.2344H49.793C48.0977 12.2344 47.1953 12.8203 47.0859 13.9922L47.0742 14.1914C47.0742 14.6133 47.2227 14.9609 47.5195 15.2344C47.8164 15.5078 48.2227 15.6445 48.7383 15.6445ZM60.6328 18H57.2344V0H60.6328V18ZM74.9766 11.1562L73.1484 13.125V18H69.6328V0.9375H73.1484V8.67188L74.6953 6.55078L79.043 0.9375H83.3672L77.3086 8.51953L83.543 18H79.3594L74.9766 11.1562ZM88.2188 18H84.8203V5.32031H88.2188V18ZM84.6211 2.03906C84.6211 1.53125 84.7891 1.11328 85.125 0.785156C85.4688 0.457031 85.9336 0.292969 86.5195 0.292969C87.0977 0.292969 87.5586 0.457031 87.9023 0.785156C88.2461 1.11328 88.418 1.53125 88.418 2.03906C88.418 2.55469 88.2422 2.97656 87.8906 3.30469C87.5469 3.63281 87.0898 3.79688 86.5195 3.79688C85.9492 3.79688 85.4883 3.63281 85.1367 3.30469C84.793 2.97656 84.6211 2.55469 84.6211 2.03906ZM94.5938 18H91.1953V0H94.5938V18ZM100.969 18H97.5703V0H100.969V18ZM109.605 18.2344C107.746 18.2344 106.23 17.6641 105.059 16.5234C103.895 15.3828 103.312 13.8633 103.312 11.9648V11.6367C103.312 10.3633 103.559 9.22656 104.051 8.22656C104.543 7.21875 105.238 6.44531 106.137 5.90625C107.043 5.35938 108.074 5.08594 109.23 5.08594C110.965 5.08594 112.328 5.63281 113.32 6.72656C114.32 7.82031 114.82 9.37109 114.82 11.3789V12.7617H106.746C106.855 13.5898 107.184 14.2539 107.73 14.7539C108.285 15.2539 108.984 15.5039 109.828 15.5039C111.133 15.5039 112.152 15.0312 112.887 14.0859L114.551 15.9492C114.043 16.668 113.355 17.2305 112.488 17.6367C111.621 18.0352 110.66 18.2344 109.605 18.2344ZM109.219 7.82812C108.547 7.82812 108 8.05469 107.578 8.50781C107.164 8.96094 106.898 9.60938 106.781 10.4531H111.492V10.1836C111.477 9.43359 111.273 8.85547 110.883 8.44922C110.492 8.03516 109.938 7.82812 109.219 7.82812ZM123.879 8.49609C123.418 8.43359 123.012 8.40234 122.66 8.40234C121.379 8.40234 120.539 8.83594 120.141 9.70312V18H116.754V5.32031H119.953L120.047 6.83203C120.727 5.66797 121.668 5.08594 122.871 5.08594C123.246 5.08594 123.598 5.13672 123.926 5.23828L123.879 8.49609Z" fill="#475FEF"/>
</svg>
